<svg width="400" height="500" viewBox="0 0 400 500" fill="none" xmlns="http://www.w3.org/2000/svg">
<path d="M153 84.5H248C251.59 84.5 254.5 87.4101 254.5 91V223C254.5 226.59 251.59 229.5 248 229.5H153C149.41 229.5 146.5 226.59 146.5 223V91C146.5 87.4101 149.41 84.5 153 84.5ZM244.5 216C244.5 218.485 242.485 220.5 240 220.5H161C158.515 220.5 156.5 218.485 156.5 216V98C156.5 95.5147 158.515 93.5 161 93.5H240C242.485 93.5 244.5 95.5147 244.5 98V216ZM245.5 98C245.5 94.9624 243.038 92.5 240 92.5H161C157.962 92.5 155.5 94.9624 155.5 98V216C155.5 219.038 157.962 221.5 161 221.5H240C243.038 221.5 245.5 219.038 245.5 216V98Z" stroke="#FAF4F4"/>
<path d="M155 82.5H250C253.59 82.5 256.5 85.4101 256.5 89V221C256.5 224.59 253.59 227.5 250 227.5H155C151.41 227.5 148.5 224.59 148.5 221V89C148.5 85.4101 151.41 82.5 155 82.5ZM246.5 214C246.5 216.485 244.485 218.5 242 218.5H163C160.515 218.5 158.5 216.485 158.5 214V96C158.5 93.5147 160.515 91.5 163 91.5H242C244.485 91.5 246.5 93.5147 246.5 96V214ZM247.5 96C247.5 92.9624 245.038 90.5 242 90.5H163C159.962 90.5 157.5 92.9624 157.5 96V214C157.5 217.038 159.962 219.5 163 219.5H242C245.038 219.5 247.5 217.038 247.5 214V96Z" stroke="#FAF4F4"/>
<path d="M157 80.5H252C255.59 80.5 258.5 83.4101 258.5 87V219C258.5 222.59 255.59 225.5 252 225.5H157C153.41 225.5 150.5 222.59 150.5 219V87C150.5 83.4101 153.41 80.5 157 80.5ZM248.5 212C248.5 214.485 246.485 216.5 244 216.5H165C162.515 216.5 160.5 214.485 160.5 212V94C160.5 91.5147 162.515 89.5 165 89.5H244C246.485 89.5 248.5 91.5147 248.5 94V212ZM249.5 94C249.5 90.9624 247.038 88.5 244 88.5H165C161.962 88.5 159.5 90.9624 159.5 94V212C159.5 215.038 161.962 217.5 165 217.5H244C247.038 217.5 249.5 215.038 249.5 212V94Z" stroke="#FAF4F4"/>
<path d="M159 78.5H254C257.59 78.5 260.5 81.4101 260.5 85V217C260.5 220.59 257.59 223.5 254 223.5H159C155.41 223.5 152.5 220.59 152.5 217V85C152.5 81.4101 155.41 78.5 159 78.5ZM250.5 210C250.5 212.485 248.485 214.5 246 214.5H167C164.515 214.5 162.5 212.485 162.5 210V92C162.5 89.5147 164.515 87.5 167 87.5H246C248.485 87.5 250.5 89.5147 250.5 92V210ZM251.5 92C251.5 88.9624 249.038 86.5 246 86.5H167C163.962 86.5 161.5 88.9624 161.5 92V210C161.5 213.038 163.962 215.5 167 215.5H246C249.038 215.5 251.5 213.038 251.5 210V92Z" stroke="#FAF4F4"/>
<path d="M161 76.5H256C259.59 76.5 262.5 79.4101 262.5 83V215C262.5 218.59 259.59 221.5 256 221.5H161C157.41 221.5 154.5 218.59 154.5 215V83C154.5 79.4101 157.41 76.5 161 76.5ZM252.5 208C252.5 210.485 250.485 212.5 248 212.5H169C166.515 212.5 164.5 210.485 164.5 208V90C164.5 87.5147 166.515 85.5 169 85.5H248C250.485 85.5 252.5 87.5147 252.5 90V208ZM253.5 90C253.5 86.9624 251.038 84.5 248 84.5H169C165.962 84.5 163.5 86.9624 163.5 90V208C163.5 211.038 165.962 213.5 169 213.5H248C251.038 213.5 253.5 211.038 253.5 208V90Z" stroke="#FAF4F4"/>
<path d="M163 74.5H258C261.59 74.5 264.5 77.4101 264.5 81V213C264.5 216.59 261.59 219.5 258 219.5H163C159.41 219.5 156.5 216.59 156.5 213V81C156.5 77.4101 159.41 74.5 163 74.5ZM254.5 206C254.5 208.485 252.485 210.5 250 210.5H171C168.515 210.5 166.5 208.485 166.5 206V88C166.5 85.5147 168.515 83.5 171 83.5H250C252.485 83.5 254.5 85.5147 254.5 88V206ZM255.5 88C255.5 84.9624 253.038 82.5 250 82.5H171C167.962 82.5 165.5 84.9624 165.5 88V206C165.5 209.038 167.962 211.5 171 211.5H250C253.038 211.5 255.5 209.038 255.5 206V88Z" stroke="#FAF4F4"/>
<path d="M153 313H248C251.314 313 254 315.686 254 319V451C254 454.314 251.314 457 248 457H153C149.686 457 147 454.314 147 451V319C147 315.686 149.686 313 153 313Z" fill="white" stroke="black" stroke-width="2"/>
<circle cx="200" cy="385" r="36.5" fill="#F4AC37" stroke="black"/>
</svg>
